<svg id="Capa_1" enable-background="new 0 0 512 512" height="512" viewBox="0 0 512 512" width="512" xmlns="http://www.w3.org/2000/svg"><g><path d="m437.589 357.213c25.487 0 40.363 28.951 25.339 49.539-46.833 64.174-122.794 105.738-208.438 105.244-140.431-.81-254.57-115.712-254.49-256.145.037-65.224 24.466-124.742 64.66-169.927 0 149.829 121.46 271.289 271.289 271.289z" fill="#2b3894"/><path d="m471.128 220.849v149.151h-416.128c-2.761 0-5-2.239-5-5v-261.015c46.627-63.08 121.536-103.985 206-103.985 117.423 0 216.381 79.058 246.551 186.849 1.507 5.384-2.555 10.721-8.145 10.721-12.856.001-23.278 10.423-23.278 23.279z" fill="#6dc54a"/><path d="m438.652 186.393h33.837s21.08 178.695-10.117 221.116c-.568.773-1.141 1.542-1.717 2.308h-22.003c-8.284 0-15-6.716-15-15v-193.424c0-8.285 6.716-15 15-15zm-217.737 22.031v-193.424c0-8.284-6.716-15-15-15h-41.262c-8.284 0-15 6.716-15 15v193.424c0 8.284 6.716 15 15 15h41.262c8.284 0 15-6.715 15-15z" fill="#a6e0ec"/><path d="m470.37 186.393h32.052c2.574 9.132 4.655 18.471 6.211 27.986 2.215 13.546-8.627 130.292-29.641 167.452-5.036 8.905-10.589 17.478-16.62 25.678-4.208-2.657-7.002-7.348-7.002-12.692v-193.424c0-8.285 6.716-15 15-15zm-134.142 22.031v-193.424c0-8.284-6.716-15-15-15h-124.858c-8.284 0-15 6.716-15 15v193.424c0 8.284 6.716 15 15 15h124.858c8.284 0 15-6.715 15-15z" fill="#c2eaf2"/><path d="m456.042 214.379h52.592c2.214 13.546 3.366 27.449 3.366 41.621 0 45.736-11.994 88.671-33.008 125.831h-22.951c-5.523 0-10-4.477-10-10v-147.452c.001-5.523 4.478-10 10.001-10zm-142.203-28.941v-147.452c0-5.523-4.477-10-10-10h-121.797c-5.523 0-10 4.477-10 10v147.452c0 5.523 4.477 10 10 10h121.798c5.522 0 9.999-4.477 9.999-10z" fill="#60c8dd"/><path d="m511.806 245.958c-9.711 1.532-17.547 9.269-18.946 19.29-.146 1.044-.219 2.115-.219 3.182 0 3.864-3.132 6.996-6.997 6.996s-6.997-3.132-6.997-6.996c0-1.713.119-3.435.354-5.117 2.323-16.64 15.606-29.352 31.884-31.35.432 4.63.74 9.296.921 13.995zm-263.343-80.904c0 3.907-3.167 7.075-7.074 7.075s-7.074-3.167-7.074-7.075c0-3.907 3.167-7.074 7.074-7.074s7.074 3.167 7.074 7.074zm29.617-90.963c-.993-19.121-16.779-34.402-35.937-34.788-18.602-.381-34.573 13.217-37.141 31.616-.235 1.683-.354 3.404-.354 5.117 0 3.864 3.132 6.997 6.997 6.997s6.997-3.132 6.997-6.997c0-1.067.074-2.138.219-3.182 1.589-11.384 11.485-19.821 23-19.561 11.859.238 21.63 9.693 22.244 21.523.328 6.313-1.881 12.307-6.22 16.876-4.342 4.573-10.201 7.091-16.496 7.091-3.865 0-6.997 3.133-6.997 6.997v31.103c0 3.864 3.132 6.997 6.997 6.997s6.997-3.132 6.997-6.997v-24.764c7.466-1.426 14.276-5.135 19.647-10.792 7.007-7.379 10.574-17.052 10.047-27.236z" fill="#232e7a"/><path d="m71.639 303.241h-35.421c-8.284 0-15-6.716-15-15v-193.424c0-8.284 6.716-15 15-15h35.421c8.284 0 15 6.716 15 15v193.424c0 8.285-6.716 15-15 15z" fill="#a6e0ec"/><path d="m192.794 303.241h-124.858c-8.284 0-15-6.716-15-15v-193.424c0-8.284 6.716-15 15-15h124.858c8.284 0 15 6.716 15 15v193.424c0 8.285-6.716 15-15 15z" fill="#c2eaf2"/><path d="m175.404 275.255h-121.797c-5.523 0-10-4.477-10-10v-147.452c0-5.523 4.477-10 10-10h121.797c5.523 0 10 4.477 10 10v147.452c0 5.523-4.477 10-10 10z" fill="#60c8dd"/><path d="m139.598 187.146c-5.371 5.657-12.181 9.366-19.647 10.792v24.764c0 3.864-3.132 6.997-6.997 6.997s-6.997-3.132-6.997-6.997v-31.103c0-3.864 3.132-6.997 6.997-6.997 6.295 0 12.154-2.519 16.496-7.091 4.339-4.57 6.548-10.563 6.22-16.876-.614-11.83-10.385-21.284-22.244-21.523-11.515-.26-21.411 8.177-23 19.561-.146 1.044-.219 2.115-.219 3.182 0 3.864-3.132 6.997-6.997 6.997s-6.997-3.133-6.997-6.997c0-1.713.119-3.434.354-5.117 2.568-18.399 18.539-31.998 37.141-31.616 19.158.386 34.944 15.667 35.937 34.788.528 10.183-3.04 19.855-10.047 27.236zm-26.644 56.651c-3.907 0-7.074 3.167-7.074 7.074s3.167 7.075 7.074 7.075 7.074-3.167 7.074-7.075c0-3.907-3.167-7.074-7.074-7.074z" fill="#232e7a"/><path d="m432.946 114.817v193.424c0 8.284-6.716 15-15 15h-156.576c-.52 0-1.034-.026-1.54-.078v141.506c0 8.284-6.716 15-15 15h-156.575c-8.284 0-15-6.716-15-15v-193.424c0-8.284 6.716-15 15-15h156.575c.52 0 1.034.026 1.54.078v-141.506c0-8.284 6.716-15 15-15h156.576c8.284 0 15 6.716 15 15z" fill="#f5e8b4"/><path d="m417.946 323.241h-124.858c-8.284 0-15-6.716-15-15v-193.424c0-8.284 6.716-15 15-15h124.858c8.284 0 15 6.716 15 15v193.424c0 8.285-6.716 15-15 15zm-158.116 141.429v-193.425c0-8.284-6.716-15-15-15h-124.858c-8.284 0-15 6.716-15 15v193.425c0 8.284 6.716 15 15 15h124.858c8.285 0 15-6.716 15-15z" fill="#fffac1"/><path d="m336.357 257.391-20.471-34.561c-.454-.767-1.1-1.403-1.875-1.845l-34.887-19.91c-3.424-1.954-3.464-6.877-.072-8.886l34.561-20.471c.767-.454 1.403-1.1 1.845-1.875l19.91-34.887c1.954-3.424 6.877-3.464 8.886-.072l20.471 34.561c.454.767 1.1 1.403 1.875 1.845l34.887 19.91c3.424 1.954 3.464 6.877.072 8.886l-34.561 20.471c-.767.454-1.403 1.1-1.845 1.875l-19.91 34.887c-1.954 3.424-6.876 3.464-8.886.072zm-164.859 171.747 19.91-34.887c.442-.774 1.078-1.42 1.845-1.875l34.561-20.471c3.392-2.009 3.352-6.932-.072-8.886l-34.887-19.91c-.774-.442-1.42-1.078-1.875-1.845l-20.471-34.561c-2.009-3.392-6.932-3.352-8.886.072l-19.91 34.887c-.442.774-1.078 1.42-1.845 1.875l-34.561 20.471c-3.392 2.009-3.352 6.932.072 8.886l34.887 19.91c.774.442 1.42 1.078 1.875 1.845l20.471 34.561c2.009 3.392 6.932 3.352 8.886-.072z" fill="#ffb52d"/><path d="m338.816 219.257-7.726-13.044c-.171-.289-.415-.529-.708-.696l-13.167-7.514c-1.292-.738-1.307-2.595-.027-3.354l13.044-7.726c.289-.171.529-.415.696-.708l7.514-13.167c.738-1.292 2.595-1.307 3.354-.027l7.726 13.044c.171.29.415.529.708.696l13.167 7.514c1.292.738 1.307 2.595.027 3.354l-13.044 7.726c-.289.171-.529.415-.696.708l-7.514 13.167c-.738 1.292-2.596 1.307-3.354.027zm-170.392 171.791 7.514-13.167c.167-.292.407-.536.696-.708l13.044-7.726c1.28-.758 1.265-2.616-.027-3.354l-13.167-7.514c-.292-.167-.536-.407-.708-.696l-7.726-13.044c-.758-1.28-2.616-1.265-3.354.027l-7.514 13.167c-.167.292-.407.536-.696.708l-13.044 7.726c-1.28.758-1.265 2.616.027 3.354l13.167 7.514c.292.167.536.407.708.696l7.726 13.044c.759 1.281 2.617 1.266 3.354-.027z" fill="#f76937"/><path d="m270.02 512h-40.368c-8.284 0-15-6.716-15-15v-193.424c0-8.284 6.716-15 15-15h40.368c8.284 0 15 6.716 15 15v193.424c0 8.284-6.716 15-15 15z" fill="#a6e0ec"/><path d="m386.228 512h-124.858c-8.284 0-15-6.716-15-15v-193.424c0-8.284 6.716-15 15-15h124.858c8.284 0 15 6.716 15 15v193.424c0 8.284-6.716 15-15 15z" fill="#c2eaf2"/><path d="m368.839 484.014h-121.797c-5.523 0-10-4.477-10-10v-147.452c0-5.523 4.477-10 10-10h121.798c5.523 0 10 4.477 10 10v147.452c-.001 5.522-4.478 10-10.001 10z" fill="#60c8dd"/><path d="m313.463 459.63c0 3.907-3.167 7.074-7.074 7.074s-7.074-3.167-7.074-7.074 3.167-7.074 7.074-7.074 7.074 3.167 7.074 7.074zm29.617-90.963c-.993-19.121-16.779-34.402-35.937-34.788-18.602-.382-34.573 13.217-37.141 31.616-.235 1.683-.354 3.404-.354 5.117 0 3.864 3.132 6.997 6.997 6.997s6.997-3.132 6.997-6.997c0-1.067.074-2.138.219-3.182 1.589-11.384 11.485-19.821 23-19.561 11.859.238 21.63 9.693 22.244 21.523.328 6.313-1.881 12.307-6.22 16.876-4.342 4.573-10.201 7.091-16.496 7.091-3.865 0-6.997 3.133-6.997 6.997v31.103c0 3.864 3.132 6.997 6.997 6.997s6.997-3.132 6.997-6.997v-24.764c7.466-1.426 14.276-5.135 19.647-10.792 7.007-7.379 10.574-17.052 10.047-27.236z" fill="#232e7a"/></g></svg>